<?xml version="1.0" standalone="no"?>
<svg viewBox="0 0 200 200" xmlns="http://www.w3.org/2000/svg">
  <path fill="#EA4335" d="M46.2,-79.6C60,-72,71.6,-60,78.1,-46C84.6,-32,86.1,-16,85.7,-0.2C85.4,15.6,83.2,31.2,76.9,45.6C70.7,60,60.3,73.3,46.8,80.7C33.3,88.2,16.6,90,0.1,89.9C-16.5,89.8,-33,87.8,-46.3,80.2C-59.5,72.5,-69.4,59.1,-76.4,44.8C-83.4,30.5,-87.5,15.3,-87.6,0C-87.6,-15.3,-83.7,-30.7,-76.7,-45C-69.7,-59.3,-59.7,-72.7,-46.4,-80.6C-33.1,-88.5,-16.6,-90.9,-0.2,-90.6C16.2,-90.2,32.3,-87.1,46.2,-79.6Z" transform="translate(100 100)" />
</svg>
